# xmcd CD database file
#
# Track frame offsets:
#	187
#	10815
#	20882
#	30035
#	40322
#	49730
#	60317
#	70402
#	80662
#	91495
#	100372
#	109890
#	120952
#	130780
#	141637
#	153495
#	162227
#	171500
#	181865
#	190987
#	201325
#	217655
#
# Disc length: 3027 seconds
#
# Revision: 2
# Processed by: cddbd v1.5.1PL0 Copyright (c) Steve Scherf et al.
# Submitted via: CDex 1.51
#
DISCID=320bd116
DTITLE=The Everly Brothers - Greatest Hits
DYEAR=1997
DGENRE=Pop
TTITLE0=Bye Bye Love
TTITLE1=I Wonder If I Care As Much
TTITLE2=Wake Up Little Susie
TTITLE3=This Little Girl Of Mine
TTITLE4=Should We Tell Him
TTITLE5=All I Have To Do Is Dream
TTITLE6=Claudette
TTITLE7=Bird Dog
TTITLE8=Devoded To You
TTITLE9=Problems
TTITLE10=Love Of My Life
TTITLE11=Take A Message To Mary
TTITLE12=Poor Jenny
TTITLE13=('Til) I Kissed You
TTITLE14=Let It Me Be
TTITLE15=Since You Broke My Heart
TTITLE16=When Will I Be Loved
TTITLE17=Be Bop A-Lula
TTITLE18=Like Strangers
TTITLE19=Brand New Heartache
TTITLE20=I'm Here To Get My Baby Out Of Jail
TTITLE21=Hey Doll Baby
EXTD=YEAR: 1997
EXTT0=
EXTT1=
EXTT2=
EXTT3=
EXTT4=
EXTT5=
EXTT6=
EXTT7=
EXTT8=
EXTT9=
EXTT10=
EXTT11=
EXTT12=
EXTT13=
EXTT14=
EXTT15=
EXTT16=
EXTT17=
EXTT18=
EXTT19=
EXTT20=
EXTT21=
PLAYORDER=
